<svg xmlns="http://www.w3.org/2000/svg" viewBox="0 0 178.58 249.45"><defs><style>.cls-1{fill:#fff;}.cls-2{fill:#004c97;}.cls-3{fill:#ffcd00;}.cls-4{fill:#c8102e;}.cls-5{fill:#100f08;}</style></defs><title>DIAMOND-13-KING</title><g id="Layer_2" data-name="Layer 2"><g id="svg8"><g id="layer1"><g id="DIAMOND-13-KING"><path id="rect7234-2" class="cls-1" d="M170,249.45H8.54A8.53,8.53,0,0,1,0,240.92V8.53A8.53,8.53,0,0,1,8.54,0H170a8.53,8.53,0,0,1,8.54,8.53V240.92A8.53,8.53,0,0,1,170,249.45Z"/><path id="path6351-0" class="cls-2" d="M24,19.46V230H154.59c-.07-63.5,0-141.36,0-210.52Zm36.85,1.76c23,0,44.85,0,68.6.14-2.12,5.06-7.91,14.17-11.53,21.49.88,2.25-.2,2.63.25,3.17a2.29,2.29,0,0,1-1.35,3.4c-6.71.72-13.88-1.13-19.8-3.4a54.07,54.07,0,0,0-25.86-3.61s-.76-.08-1.1-1.86C67,31.24,63.7,27.35,60.83,21.22Zm-35.18.26H59.7s1.6,2.84,5,9.4c1.42,2.78,2.62,4,2.75,6.16a3.52,3.52,0,0,0,1.52,3.34c.35.2.94,0,.74.52s.45,1.54.63,1.74.08.44.1,1.75a9.26,9.26,0,0,0,.36,2.75c.68,2.41.83,3.62.44,4.87a69,69,0,0,1-3.43,8.57c-.8,1.73-.67,2.41,1.76,3.67,1.83.94,2.07.93,1.84,2.31a2.61,2.61,0,0,0-.07,1.36,2.29,2.29,0,0,0,.56.61c.24.2.17.63-.08.94s-.24.75,0,1.48c.77,1.89-1.37,4.54-3.8,5.47-.7-2.49-4.24-3.36-6.3-1.75-1.79,1.4-2.08,3-1.61,5.21C55.71,82.53,51,85.63,46.25,88a18.13,18.13,0,0,1-1.11-3.41c-.32-1.08-.28-1.16-.16-3.25.11-1.89.16-2.33-.28-2.45-2.52-.28-3.09.61-3.57,2.25-.21.72-.62.57-.86.27-1-1.75-2.17-3.58-3-4.82-1-1.59-2.67-2.39-3.55-1.63-.18.61-.33.63-1.45.38a1.67,1.67,0,0,0-2.24,1.45c0,.4.24.38-.49.77-1.79,1.34-1.11,3.16-.84,4.25A1.65,1.65,0,0,0,28,83.27c-.08,5.33,4.51,13,4.4,12.8l-6.7,4Zm105.15,0h21.8v3.95l-10.72,11v8.1c-5.76-1.45-8.13-7.93-8.59-12.42-10.66,9.78-10.39,24.5-.33,33.73,1.16-4.67,5.7-11.63,8.92-11.59V83.38l-6.4-6.44-13,.1c2.22-2.55,1-8.35-.18-11.49C120,59.64,116.73,50,117,49.82c0,0,1.88-.48,2-1.68.25-1.77-.52-1.64.58-3.24a1.8,1.8,0,0,0-.17-1.58,1.51,1.51,0,0,1,0-1.46Zm22.53,4.35,0,67.19c-.79,5.45-.45,11-.49,16.53l-5.36,2.85L127.35,85.89a7.72,7.72,0,0,1,1.18-1.41c-.43-1-1.85,1.44-2,1.83,7.29,9.09,20.85,26.88,20.85,26.88l5.65-3c0,5.45-.13,11-.17,16.41-9.87,5.7-15.74,14.91-20,24.35-3.91,1.28-8,3.1-11.95,4.73l5.66,8.54-2.24,1.22c-25.17-38.29-14.38-65.21,5.72-87.63l3.7-.06,8.63,8.06-.16-49c3.59-3.76,7.58-7.16,11.05-11ZM132.63,34c.16.57.51,2,.54,1.94-5.91,6.19-8.7,16.34-.13,26.74a12.82,12.82,0,0,0-.43,1.64c-9.21-9-7.85-23.22,0-30.32Zm.89,2.59a17.2,17.2,0,0,0,5.3,7.4c-1.42,3.17-2.26,6.48.39,10.66a20.56,20.56,0,0,0-5.65,7.65c-8.3-9.69-5.64-19.79,0-25.71ZM78.06,42.55c3.92,0,8.42.47,11.39,1.61,1.21,9.15,7.64,22.73,6.81,26.24-1.64-2.49-8.54-1.83-6.46,5.14a15.55,15.55,0,0,1-1.69,2c-2.89,3-3.61,3.44-2.23.84a36.41,36.41,0,0,0,2.43-5.11c0-.41-.29-.5-.53-.18a7.61,7.61,0,0,0-.58,1.26c-1.73,4.06-4.68,7.73-6.71,8.61-.52.22-.5,0-.13-.47a31.6,31.6,0,0,0,5.51-9.36.33.33,0,0,0-.63-.18c-2.25,4.73-2.92,5.8-5.67,9.13-1.09,1.31-2.09,2-2.9,1.9s-.49-.18.16-.87c.49-.53,1.21-1.26,2.39-2.75,2.08-2.62,4.16-6.9,3.39-6.67-.13-.36-.78.78-1.34,1.86-1.51,2.56-3.12,5.94-6.72,8.17a6.54,6.54,0,0,1-2.31.5c-1,0-.41-.29,1.76-1.81s5.6-6.14,6-7.87c.19-.78-.31-.84-.87.24-2.56,5-7.42,9.49-11.87,9.29-2.18-.1-3.35-.69-1.55-1,4.94-.61,8.64-3.44,11.87-9.09,0-.13-.29-.12-.63.09-3,3.64-6.58,8.6-12.44,8.21A3.87,3.87,0,0,1,63,75c3.07-1.45,5.83,2.5,3.25,4.52a1.52,1.52,0,0,1-1.28.18s.28,0,.78-.39c1.88-1.52-.25-4.5-2.5-3.37a2.36,2.36,0,0,0-.65,3.7c2.46,3,7.77.73,11.47-4.18.39-.52.73-1.64.4-1.52a2.92,2.92,0,0,0-1.26,1.2,11.15,11.15,0,0,1-4.12,3.76,5.7,5.7,0,0,1-1.39.51,2.59,2.59,0,0,0,.67-1.73,5.51,5.51,0,0,1,.69-.58c2.3-1.48,3.66-3.62,3.71-4.94,0-1-.66-2.22.1-2.48,1.29-.62,4.81-.12,5.76,1.1.69.88,1,.37.44-1-.34-1-.32-1.48-.84-1.38-.64.34-1.09.26-2.34-.43a11,11,0,0,0-2.33-.79c-1.19-.28-1.44-.16-1.42-.68,0-.16,0-.61,0-.89.2-1.56-1.1-2.09-2.87-3.11-1-.6-.62-1.22.57-4.19.62-1.35,1.15-3.15,1.92-4.52A7.51,7.51,0,0,0,72,48.58c-.86-3.55-1.48-5.36,0-5.68a42.06,42.06,0,0,1,6-.35Zm61,1.71a12.83,12.83,0,0,0,2.85,1.12v8a12.85,12.85,0,0,0-2.56.88h0c-2.74-3.38-1.64-8.33-.29-10Zm-48.56.1,1.38.41c1.38,8.84,5.56,17.07,6.9,25.19,1.42,6.21-5.93,9.67-8.39,4.32a3.22,3.22,0,0,1,1.76-4.07c2.69-1.37,5.58,2.27,3.46,4.28-1.61,1.52-4,.39-3.47-1.55a1.34,1.34,0,0,1,2.56-.07c.09.42.3.85.45.61,1-2.33-2.33-3.42-3.71-1.25a2.63,2.63,0,0,0,3,3.55c3.14-.58,3.43-5.11,2.16-9.8-2.18-8.08-5.7-15.32-6.13-21.62Zm2.39.76,1.43.52c1.56,7,4.17,14.3,5.87,20.5,1.15,4.21,2.44,9-2.1,11.08l-1.31,0A6.67,6.67,0,0,0,98.07,76c5.15-4.73-3.2-18.1-5.13-30.27,0-.13-.08-.59-.08-.59Zm-15.12.44c-2.31-.06-4.54.64-4.36,1.65.12.7.64.87,2.43.64,4-.77,7.75.85,10.63,2.66a7.34,7.34,0,0,0,1.35.81c.13,0,.2-.17,0-.37-2.2-2.78-6.38-5.29-10.09-5.39Zm17.72.37,1.47.6c1.34,7.41,4.64,15.09,6.23,21.75.93,3.92.67,6.39-1.49,8.52a4.23,4.23,0,0,1-.68.47h-1.3c3.29-2.79,2.55-6.91,1.34-11.1C98.78,58.45,95.08,46,95.46,45.93Zm2.55,1,1.32.57c1.36,6.4,1.7,6.55,5,16.79,1,3.08,1.91,5.8,1.72,8.37,0,1.46-1.31,4.36-2.65,4.59h-.81c3.14-3.59,1.75-8.5.38-12.59A139.38,139.38,0,0,1,98,46.94Zm2.37.86,1.62.58c1.64,6.53,3.68,12.88,5.41,18.1a19.24,19.24,0,0,1,1.25,6.14,6.19,6.19,0,0,1-2.21,4.58l-1.26,0A15.48,15.48,0,0,0,106.91,73c.28-3-.67-5.48-1.75-8.86-2.62-8.27-4-10.92-4.78-16.29Zm2.62.92,1.38.41c1.81,5.74,3.44,11.59,5.24,16.55A18.47,18.47,0,0,1,111,72.23a7.65,7.65,0,0,1-2,4.85l-1.22,0a9,9,0,0,0,1.63-4.65,21.6,21.6,0,0,0-1.23-6.16C106.15,59.4,104.11,54.83,103,48.72Zm-26.72.67c-.34.08-.62.26-.55.62s.42.41.83.3c3.75-1.14,7,1.39,9.93,2.88a.72.72,0,0,0,.44.16c.16,0,.22-.11,0-.31C83.2,50.87,80.74,48.51,76.28,49.39Zm29.15,0,1.46.29c1.82,5.61,3.68,11.58,5.58,16.73,1.15,3.14,1.6,8.5-1,10.82l-1.39,0a9,9,0,0,0,1.65-5,17.61,17.61,0,0,0-1.18-6.23c-2.18-6.18-3.82-11.5-5.14-16.57Zm2.61.48,1.38.19c1,5.86,3.76,11.38,5.32,16.32a17.37,17.37,0,0,1,1.08,7.34,6.78,6.78,0,0,1-2,3.58h-1a16.25,16.25,0,0,0,1.49-4.71,18.84,18.84,0,0,0-1-6.34c-2-5.91-4-11.23-5.27-16.37ZM74.14,50c-.24.09-.1.71.32,1.56s.67.9.5,1.45c-.4,1.25.17,1.49.91.39.56-.87.62-.85,1.15.26.7,1.4.37,2-.69,1.13-.81-.69-1-.17-1.32.37-.41.71-.35,1.36.38,1.3a1.41,1.41,0,0,1,1.15.53,6.15,6.15,0,0,0,3.09,1.81c.39,0,.26-.37-.66-1C76.79,56.26,76.6,56,78.72,56a6.26,6.26,0,0,0,1.86-.51c2.76-.93,2.9-.86,4.22-.54.44.1.89.28,1.09.11s.63-.46.25-.87a6.61,6.61,0,0,0-1.4-.88C81.52,51.49,81.23,51,77.45,51c-.43,0-.65.21-.91.21A2,2,0,0,1,75,50.45C74.55,50.05,74.28,49.92,74.14,50Zm42,.07c1.46,5.14,3.41,10.33,5.08,15.07,1.28,3.91,3.22,9.7-.38,12.19h0l-1,0c1.75-2.36,2-4.4,1.37-7.34-2.07-8.92-6-14-6.42-19.81Zm-6.08.06,1.62.09c1.09,6.06,4.25,10.45,6,17.85.88,3.21,1.45,6.92-1.62,9.19h-.93a13.47,13.47,0,0,0,1.55-4.06c.16-2.7-.88-5.61-1.83-8.78C113.42,59.51,111,54.84,110.09,50.1Zm2.33.09,1.44,0c1.6,7.15,4.91,12.25,6.64,20.13.62,3.28.09,5.31-2,6.88l-1,0s.15-.27.54-.93c1.82-3.31.82-6.37-.09-9.81C116.29,60,113.16,54.94,112.42,50.19Zm-32.31,3c-.24.64-.45,1.52-1.29,1.81-.18.05-.29-.08-.28-.13A5.42,5.42,0,0,1,79.1,53c.09-.22.23-.25.43-.29C80.14,52.65,80.26,52.68,80.11,53.2Zm1.38,0c.43.2.81.79.54,1a3.73,3.73,0,0,1-1.63.48c-.26,0-.27-.09-.17-.34A8.43,8.43,0,0,1,81,53.28C81.12,53.05,81.43,53.19,81.49,53.22Zm-5.92,6.53c-.34,0-.35.34.39.79a1.22,1.22,0,0,1-.71,2.23c-.54,0-.9-.24-2.26-1.25-1.12-.83-2.18-.9-2.42.23-.14.67.08,1,.8.79.31-.07.5.11.93.41.92.54,1.82,1.33,2.83,1.1,2.38-.66,2.88-3,1.33-4A1.71,1.71,0,0,0,75.57,59.75Zm5.64,3.47c-.14.19,0,.5.54.57,1.5.5,2,2.27.68,3-.74.39-1.92.14-3.34-.92-2.55-1.89-5.66-2-5.26-.09.1.46.3.52,2.16.78a7.09,7.09,0,0,1,2.86,1,5.45,5.45,0,0,0,2.73.78c3.56-.21,3.22-4.58,1-5.32A1.88,1.88,0,0,0,81.21,63.22ZM35.05,75.81c.76,0,1.1.59,1.47,1.1,1.38,1.92,2.37,3.83,3.77,6l-.19,2a1.1,1.1,0,0,0-.57,0c-.41.2-.65.84-.88,1.68S36.11,89.08,35.27,90a.61.61,0,0,0-.28.37c0,.33.94.11,1.56-.6.91-.81,1.3-.54,1.27.5.09,1.28.86.64.9-.61a2.82,2.82,0,0,1,1.13-2.14c1.3-1,1.08-.78,1-2.23-.1-2.53.87-4.6,1.5-3.23.23.49.49,1,1.06,1.07.4,0,.6.42.82,1.39.33,1.58.78,2.6,1.2,4.06l-12,6.86c-2.1-2.45-3.62-6.53-4.4-9.18-.39-1.33-.43-2.84-.09-3s.5,0,.43.81-.07,1.17.21,1.16c.82-.21.85,1,.77,1.32s-.16.33-.2.44c-.21.48.32.41.86.42s.61.28.58.74.69.41,1.07,0,.27-.76-.2-1.06c-.68-.41-1.32-1.44-2.89-5-.92-2-.65-3.51.44-3.49.76,0,1.64,2.11,2.35,3.64.19.4-.27.84-.44,1.06-.41.55-.35.72.27.73s.83,0,1.18.68a1.81,1.81,0,0,1,.18,1c-.3.79.32,1,.91.68.76-.32.75-1-.4-2.1-.74-1.21-.54-1.13.16-2,.14-.29.06-.47-.25-.47-.89.27-1.86-1.34-1.59-1.89.27-.24,1-1.09.29-.93-1.46.4-2.35-1.75-1.49-2.48,1.29-.65,1.59-.45,3.57,3.52.61,1.24,1.35,2.57,1.44,2.7a1.9,1.9,0,0,1,.13.8c-.09.71.22.88.84.59.47-.11.89-.5.3-.86-.69-1.2-.94-1.39-.56-1.69.86-.69.49-.67-.48-.86a1.23,1.23,0,0,1-.84-.68c-.5-1.13-1.38-2.72-1.47-3-.29-.83.24-1.2,1-1.17Zm55.24.55c1.55.66,2.93,1.28,4.16,1.88-3.83,7.58-8.33,10.3-16.25,13.67l.74,3.38C87.37,92.13,92.73,88.35,97,81c5.14.07,25.93.22,26,.15-8.48,9.7-15.17,24.33-15.9,35.74-.18,2.22.13,1.15-.85,1.81l-1.53,1.84-1.21-1.81s-.87-1.12-1.42-.19c-1.55,15.91.09,34.05,7.71,46.69a6.54,6.54,0,0,1-4-.64,81.5,81.5,0,0,1-5.5-21.46,103.36,103.36,0,0,1,.16-24.56l-.51-.07a103,103,0,0,0,.38,29.65,76.07,76.07,0,0,0,4.5,15.79c.43,1,.76,1.2.36,1.34-9.29.79-13.56,3.91-16.9,8.88a18.83,18.83,0,0,0-5-2.49,27.59,27.59,0,0,1,16.53-13.21,3.32,3.32,0,0,0-1.26-2.53,10.51,10.51,0,0,1,.36,2.22c-7.75,2-14.57,9.62-16.32,13.56l-34.06.37c25.25-24.35,26.26-58.63,5.66-87.37l2.37-1.39c15.87,23.91,15.71,47,11,62.38a62.06,62.06,0,0,1-14,24.07s18.47.25,27.66-.09A38.94,38.94,0,0,1,85.42,164s-4.67,4.54-4.55,5.33c-8.52,0-17.3.49-25.81-.1,10-12,14.86-24.35,15.71-36,0-1.52.13-.67.62-1.23L73,129.59l1.26,2.55c.85.28,2.54-.17,3.25.09,3.5-15.71,0-34.68-4.64-47,2.5-.8,5.27-.05,8.3-1.59a3.55,3.55,0,0,1,.93-.74c3.78-1.38,8.22-6.56,8.22-6.49Zm-26.15.17a1.35,1.35,0,1,1-1.34,1.34A1.34,1.34,0,0,1,64.14,76.53Zm31.31,1.53h33.61c-12.91,14-18.83,25.77-19.76,41.73-.89,15.2,3,29.09,14.64,45.79l-2.41,1.61c-20-30.35-19.07-62.58,3.2-87l-28.17,0C93,87.34,87,91.67,79.35,94.35l-.66-2.24c8.78-2.84,13.23-7.54,16.76-14Zm-51.3,1.87c.39.17.17,2.22-.36,2.23s-1.32-1.74-.87-2.09a1.16,1.16,0,0,1,1.23-.14Zm16.29.91a6.21,6.21,0,0,0,1.23,1.39,5.83,5.83,0,0,1-2.13-.74,3.31,3.31,0,0,0,.9-.65Zm1.85,3,4.16,1.6L65.7,90,61.51,88.3Zm10.2,1.71c5.6,14.48,6.82,32.31,4.63,46.33l-1.46-.06c2.4-23.75-2.31-35.76-6.47-46.21,0,0,0-.42.15-.55A2.84,2.84,0,0,1,72.49,85.59ZM53.54,85c27.67,38.79,10,72-6.09,87.47l-3.3.18a76.08,76.08,0,0,0,7.19-7.78c-6.79-9.39-14.34-19.57-20.68-27.71a16.77,16.77,0,0,0-2.19,1.47c0,.09.18.52.22.43a10.64,10.64,0,0,1,1.77-1.18l20.09,26.51s-1.09,1.31-1.42,1.73c-1.56.51-5.91,5.92-6.12,5.81-3.4-2.62-13.67-13.73-17.62-17.14L25.34,124c.41-1.23,11.35-6,19.08-23.73,3.89-2.19,8.19-3.37,12.19-5.27a14.73,14.73,0,0,0-1.51-2c.61,1.33.72,1.58-.67,2.15L25.51,106.92l.06-2.39c2.9-2.26,22.07-16.21,28-19.5Zm-16.6.88a23.8,23.8,0,0,0-3.26,3.16c-.25.49,0,.59.11.48a39,39,0,0,1,3.56-2.68,2.75,2.75,0,0,0,1-1.23c-.19-.27-1,0-1.46.27Zm29.14,5,3.74,1.69-1,4.46-3.64-1.77Zm2.91,7,3.29,2.34-1.55,3.6-3.11-2.13Zm-9.62,2.24a91.4,91.4,0,0,1-12.79,23.19c4.08,5.37,15.76,20.84,16.17,20.68h0c5-15.75,3.52-30.78-3.39-43.87Zm-15.73.69A59.6,59.6,0,0,1,36.72,112,77.56,77.56,0,0,1,25.9,122.64l-.18-2.89.71,1.06,1.3-1-.91-1.21-1.14.89-.07-1.16c7.22-5.25,10.33-11.27,13.26-15.79l1.31-.56,1.48.48.72-1.29Zm-4,1.81L39,103.93l1.46.76.76-1.33Zm-1.72.14c-3.35,5.74-7.31,11.07-12.86,15.3L25,107.83Zm.76,1.74-.76,1.34,1.44.81.77-1.33Zm32.14.46,3,2.32-1.48,3.3-3-2Zm44.32.25c-5.23,15.76-3.29,30.52,2.86,44.18,3.64-7.78,7.23-15.8,13-21.86Zm-77.57,1.2-.82,1.33,1.38.86.83-1.29Zm22.2.78c3.19,10,4.62,19.91,1.59,30.63L49.92,123A77.68,77.68,0,0,0,59.77,107.24Zm-23.49,1.19-.91,1.29,1.39.9.89-1.25ZM35,110.27l-1,1.21,1.29,1,1-1.2Zm37.61,1.29L75.1,114l-1.88,3.25-2.44-2.61Zm-39.18.64-1,1.14,1.24,1.08,1-1.14Zm83.19.47,11.34,14.41A104,104,0,0,0,118.29,142,43.22,43.22,0,0,1,116.57,112.67Zm-84.75,1.26L30.75,115l1.17,1.13,1.07-1.1Zm-1.66,1.73-1.13,1,1.06,1.13,1.13-1Zm28.72.56-5.27,7.18,6,7.37C60,130.77,60.27,121,58.88,116.22Zm-30.45,1-1.17,1,1,1.17,1.18-1Zm44.63.69,2.24,2.63-2,2.63-2-2.51Zm45.24,1.66a37.48,37.48,0,0,0,.77,15.32l5.24-7.61Zm-13.75,1.57,1.84,2.93-2,2.65-1.94-2.8ZM73.3,124.21l1.91,2.43-2,2.51-1.76-2.37Zm31.18,3,2,2.31-2.07,2.82-2.15-2.53Zm48.17,0c0,.77,0,.91,0,1.28l-.55.39.54.92c0,.46,0,.83,0,1.95-4.24,3.41-8.59,6.43-13.55,16.08l-1.51.73.09-.27-1.39-.66-.7,1.38.48.19c-.76.43-.77.35-2.26,1.08,0,0,1.12-2.61,1.94-4.15,3.91-6.84,9-13.64,16.89-18.92Zm-1.23,2.19-1.24.9.9,1.24,1.23-.9Zm-2,1.52-1.18,1,1,1.19,1.19-1Zm-1.79,1.48-1.12,1,1,1.13,1.13-1Zm5.44.09.22,9.5-13.09,5.54a33.35,33.35,0,0,1,12.87-15Zm-48.63.62,2.61,2.4-1.66,3.23-2.57-2.45Zm41.35,1-1.06,1.11,1.11,1.06,1-1.11ZM144,136.06l-1,1.17,1.16,1,1-1.17ZM142.44,138l-.94,1.21,1.21.94.94-1.21Zm-36.95,1.69,2.94,2.44-1.78,3.31-2.86-2.74Zm35.55.14-.86,1.27,1.26.87.86-1.27Zm-1.27,1.9L139,143l1.3.8.8-1.3Zm13,1.29v2.29s-21.62,8.06-29.4,12.51l-1.19-1.8c10.29-4.09,21-9.5,30.59-13Zm-14.23.6-.77,1.33,1.32.77.77-1.33Zm-1.15,2.08-.76,1.33,1.32.76.76-1.33Zm-30.51.5,3.19,2.2-1.47,3.82-3.16-2.32Zm45.67,3.65v78.26H117.85l-8-14.58a3.56,3.56,0,0,0-.51-2.64,3.28,3.28,0,0,1-.41-1.26c-.08-.72-.08-.72-1.13-1.67-.22-.2-.26-.33-.18-.53.35-.89.14-2.69-.54-4.85-.87-2.72-1.1-2.68.52-6.32.34-.76.74-1.78,1.18-2.71,2-4.12,2.3-5.24-1.12-7.43a1.92,1.92,0,0,1-1-2.39c.19-1,.23-1.59-.23-2.13-.3-.36-.57-.42-.5-.69a4.85,4.85,0,0,0,.2-1.67c-.2-1.82,1.91-4.49,3.81-5.46a4,4,0,0,1,.42-.16s.15.35.29.61c2,3.49,6.92,2.07,7.25-2.09a4.32,4.32,0,0,0-.07-1.53c6-3.61,9.78-6.07,14.06-8.54,1.87,3.27,1.21,6.17.82,9,0,.49.46.58,1.09.59a3.69,3.69,0,0,0,2.94-2.09c.28-.87.46-1.43.72-1.42s.38.35,1,1.59a17.46,17.46,0,0,0,2.8,4.42c1,1.2,1.84,1.36,2.82.47.68-.62.66-.08,1.24.23,1,.68,2.5.07,2.54-.89,0-.81,0-1.41.85-1.47s1.3-1.23,1-2.91c-.13-.88-.16-1,.11-1.35a2.83,2.83,0,0,0,.51-3.26c-1.37-4.2-3.37-7-5.24-10.84,0,0,4.62-2.71,7.44-4.29Zm-43.54,3.27,3.89,2.18-1.12,4.18-3.85-2ZM149.67,165c.83,1.81,0,3-1,1.55-.42-.57-.2-.93,0-2,0-.19-.15-.12-.49-.17-.54.05-.8-.43-.78-1.26.34-1.18-.13-.54-.36-.48-.43,0-.52-.26-.76-.75-.15-.7-.45-.5-.89,0s-.37.37.37,1.25a18.72,18.72,0,0,1,3.49,6.42,2.21,2.21,0,0,1,0,1.22c-.57,1.3-1.37,1.31-2.24-.51a11.45,11.45,0,0,0-.65-1.11,2.52,2.52,0,0,1-.53-1.68c.25-.65.3-.66.07-.75a3,3,0,0,1-1.58-2.12c0-.92-.2-1.4-.91-.86s-.47.87.34,1.66c.84,1,.89,1.88.39,2.6-.08.25,0,.32.26.29a1.38,1.38,0,0,1,1.25,2.09c-.31.56-.28.7.16.72a2.09,2.09,0,0,1,.8.06,5.2,5.2,0,0,1,.89,1.93c-.29.88-.73,1.23-1.19,1.23h0a2,2,0,0,1-1.49-1.16c-.93-1.57-2.06-4.22-2.78-5.68a1.73,1.73,0,0,1-.17-.87c-.06-.86-.35-1.18-.85-.8s-1.19,1-.38,1.12c.81.61,1.27,1.52.76,2.07s-.22.67.08.68c1.14,0,2.84,3.43,2,4.17-1.08,1-2.27-.24-4.81-5.31-1.12-2.25-1.18-4.7-.22-3.48.33.3.26.14.65-.82a5.12,5.12,0,0,1,1.62-2.13,10.78,10.78,0,0,0,2.17-2.54c.06-.43-.72,0-1.29.72-1.27,1.25-1.31,1.58-1.3-.08,0-1.49.09-1.76-.18-1.75s-.64,1.19-.84,2.62a3.69,3.69,0,0,1-2,2.65c-.3.2-.31.33-.25.9.2,1.82-.82,5.2-1.29,4.37-.07-.19-.27-.63-.38-.94-.09-.48-.39-1-.84-1.06-.57-.42-.57-.65-.77-2.22-.18-1.07-.61-2.05-.83-3.11,0,0,7.52-4.71,11.45-7A69,69,0,0,1,149.67,165ZM25.39,156l10.2,10.08s.2,13,.19,18.33S35.7,195,35.72,196s-.06,5.2-.09,9.52c-.06,9.05.76,7.93-.91,9.67l-9.21,8.66Zm86.5,3.77,4.93,2.29-.92,4.8-4.71-2.23Zm31.57,1.1c-1.21,1.61-2.88,2.3-3.9,3.76-.16.27,0,.38.25.38a3,3,0,0,0,1.48-.91c1.35-1.23,3.13-3.25,3.13-3.64-.34-.19-.73.1-1,.41Zm-37.87,4.75c1.42,0,.92.36-.37,1.19-2.76,1.78-6.62,6.9-7.25,8.71-.15.43,0,.67.29.64,2.27-3.65,5.26-7.66,8.75-9.34,1.87-.91,4.24-1.08,5.41-.51.85.42.64.56-.88.66-3.64.36-7.91,3.8-10,7.44-1.24,2-.37,1.55,1-.39,2.41-3.32,7.2-6.5,10.17-6.25s4.73,2.52,4.35,4.53a3.47,3.47,0,0,1-2.77,2.8c-2.88.61-4.76-4-2.13-4.84a2.44,2.44,0,0,1,1.43.07c-2.76.58-1.44,3.62,0,3.68a2.09,2.09,0,0,0,2.28-2.16c0-1.21-1-2.38-3-2.41-2.34,0-5.94,1.66-8.12,4.79-1.55,2.38-.13,1.58,1,0a13.72,13.72,0,0,1,4.44-3.3,4,4,0,0,0-.11,1.62c0-.28-5,3.18-4.65,5.75.18,1.86-.09,2.43-2,2.41-1.44,0-3.28-.53-3.81-1.19s-1.17-.87-.89.24c.44,1.81-.09,2.1,1,1.76.71-.24,1.35.34,2.07.86a4.75,4.75,0,0,0,3,.76c.89,0,1.3,0,1.16.87a2.88,2.88,0,0,0,0,1.53c.28.63,1.4,1.29,2.66,2.22,1.49,1.11,1.21,1.17-2,8.53-1.33,3.09-1.34,3.72-.54,6,1.26,3.61,1.46,5.05-.91,5.56a34.73,34.73,0,0,1-4.12.22,44,44,0,0,1-12.59-1.91c-2.54-12.88-7-21.54-7-26.58,1.83,1.63,4.69,2.12,6.62-.5,1.22-1.61,0-3.84.61-4.77,1.19-1.75,4.23-5,4.74-4.86s.31.24-1,2.25-2.4,4-2,4.46c.19.2.29-.22,1.3-2,2.38-4.16,4.48-6.73,5.3-6.39.39.15.19.5-1.57,2.84-2,2.65-2.54,4.3-2.35,5,.16.57.46-.34,1.29-2a54.47,54.47,0,0,1,3.76-5.48,3.38,3.38,0,0,1,1.6-1.35,4.34,4.34,0,0,1,1.75-.51c.24,0,.07.17-.25.49a30.41,30.41,0,0,0-6,8.37c-.19.37.08.9.39.51,1.9-3.36,4.55-7.56,7.42-9.41a5.35,5.35,0,0,1,2.38-.66Zm-69.31,1.49,6.22,6,13.31-.18c-2.19,3.58-2.24,6.43-.82,9.79,2.39,5.48,6.09,18,5.8,18a.59.59,0,0,1-.4.34,2.05,2.05,0,0,0-1.5,2.61c.06.41.06.31-.22.85a4,4,0,0,0,.21,3.88l-11.67,19.7H25.65v-3.35l10.63-10.82v-8.11c4.07,1.55,7.38,7.24,8.5,11.58C55,209.78,55.47,193,44.32,184.44c-.09,3.71-3.06,11-8,11.54Zm80,.61c.86.14,3.15.8,2.08,1.32l-1,.46A3.43,3.43,0,0,1,116.24,167.7ZM135.06,169c.05.27.05.53.12.57.41.27-.29,1.05-.94,1s-.61-1.83-.23-2.36c.58-.82,1,.28,1.05.75ZM114,170.75a1.3,1.3,0,1,1-1.29,1.29A1.28,1.28,0,0,1,114,170.75Zm-26.3,4.51a3.29,3.29,0,0,1-1.83,4.56c-3.46,1.24-6-3.2-2.6-4.57,1.76-.71,3.43.57,2.64,2.05a1.37,1.37,0,0,1-2.49-.15c-.3-1.14-.8-.6-.59.18a2.06,2.06,0,0,0,4.06-.39c0-2.82-3.07-3.48-4.9-1.9-1.42,1.27-1.57,3.55-1.22,5.53.49,4.12,2.81,9.47,4.46,15.57A84.68,84.68,0,0,1,87.63,206l-1.23-.36s-3.84-13.17-6-19.6c-1.67-5.24-3.12-11.68,3-13.08a4.23,4.23,0,0,1,4.32,2.35Zm-8.07-2.48v0h1.69s0,.1-.73.65c-4.08,3.08-1.65,9.84-.1,15,2.68,8.31,5.08,16.8,5,16.79l-1.69-.65c-.93-5.4-5.29-15.72-6.83-23.42-.43-4.62-.5-6,2.61-8.45Zm-8,0,1.16,0c-4.42,8.3,2.27,16.89,4.91,29.6l-1.57-.48C73.92,192.51,65.7,177.06,71.56,172.79Zm-1.84,0h.48c-2,3.09-1.65,7-.56,11.21,1.46,5.68,4.3,11.91,5.25,17.51a8.65,8.65,0,0,0-1.7-.55c-1.66-7.13-4.69-14.14-6.07-20.78C66.65,176.57,67.45,173.85,69.72,172.82Zm4.18,0h1.33a8.87,8.87,0,0,0-1.5,6c.52,8.45,4.81,16.66,6.36,24.45l-1.47-.54C76.94,193.43,68.58,179.53,73.9,172.82Zm2.88,0h1.45c-1.55,1.55-2.59,2-2.16,7.4.69,6.93,5.24,15.59,6.83,24.16l-1.58-.61s-.42-1.25-.57-2c-1.55-6.89-5.75-14.64-6.24-22.7C74.4,176.49,74.85,174,76.78,172.84ZM62.05,173h1c-2,2.34-1.85,5.53-1,9,1.38,5.67,4.72,12.5,5.55,18.17L66.15,200c-1.39-6.08-4.09-12-5.85-18.07a14.82,14.82,0,0,1-.49-4.29c.24-2.59,1.3-4.63,2.24-4.63Zm3.44,0c-1.88,2.52-2.15,5.14-1.29,8.54,1.76,7,4.42,13,5.73,18.83l-1.34-.25c-1.57-5.61-4.25-12.56-5.86-18.35-1-3.56-.59-7.95,1.62-8.75Zm-7.28,0c-1.34,1.26-1.8,3.39-1.59,5.59.61,6.21,5,14.83,6.57,21.46l-1.55.31a170.71,170.71,0,0,0-5.79-17.74c-1.56-3.13-1.09-7.76,1.25-9.59Zm2.2,0c.16,0-1.57,2.7-1.42,5a13,13,0,0,0,.44,3.86c2.18,6.27,4.32,12,6,17.92l-1.4.07c-1.92-7.43-5.63-14.09-6.53-21.14a6.66,6.66,0,0,1,1.79-5.69Zm6.28,0h1.4a7.82,7.82,0,0,0-1.71,7,121.77,121.77,0,0,0,3.31,11.85c1.47,4.81,2.66,8.88,2.52,8.92l-1.59-.25c-3-13.79-9.53-22.36-3.93-27.48ZM97.05,182a3.08,3.08,0,0,0-2.94,1.81c-.39,1.3-.08,3.67,2.51,3.67.89,0,1.45-.66.34-.86-4-.71-1.3-4.84,1.48-2.71,2.52,2.28,5.88,2.26,5.92.64,0-.4,0-.42-.61-.53a22.27,22.27,0,0,1-4.29-1.31,9.07,9.07,0,0,0-1.1-.5,3.67,3.67,0,0,0-1.31-.21ZM45,185.75c10.07,9.18,8.2,22.34.47,30l-.56-1.64c4.27-2.47,9.5-16.19-.1-26.26Zm58.51.6c-1.84,0-3.32,1.75-2.17,3.55a2.06,2.06,0,0,0,1.32.84.16.16,0,0,0,.11,0c.1-.06-.12-.46-.45-.92-1.53-2.07.58-2.69,2.08-1.58s3.63,1,3.31-.16c-.11-.41,0-.61-.8-.62a2.08,2.08,0,0,1-1.53-.49A3.16,3.16,0,0,0,103.48,186.35Zm-58.93,2.18c7.57,7.7,5.89,18.85.16,25.26-1.47-3-3.14-5.74-5.41-7.39A11.92,11.92,0,0,0,39,195.84c1.46-.81,3.48-2.94,5.58-7.31Zm52.77,3c-.84,0-.48.53.5.91a4.65,4.65,0,0,1,2.14,1.67c0,.22-.31.09-2,.57a17.69,17.69,0,0,0-2.25.88,2.92,2.92,0,0,1-1.91.3c-2-.06-2.25,0-.88,1,2.77,2.06,6.46,3.41,8.42,2.55.59-.26.58-.1,1,.15a3,3,0,0,0,1.32.47c.58,0,.58-.54-.34-1.35-.56-.5-.52-.33-.49-.65.14-1.34-.07-2.58-.62-1.19-.15.37-.36.79-.58.74-.41-.13-.2-.88-.4-1.26-.33-.68,0-.84.83-.63.58.15.62-.17,1-.57.63-.71.53-1.13-.45-.91a.83.83,0,0,1-.42,0,3.89,3.89,0,0,1-1.3-.81,9.69,9.69,0,0,0-3.09-1.81c-.17,0-.32,0-.44-.05Zm1.83,4.11c.14,0,.3,0,.36.07.18.26-.43,1.52-.79,1.7-.19.1-.38-.06-.51-.14s0-.25,0-.4c.23-.41.63-1.19.63-1.19a2,2,0,0,1,.28,0Zm-1,.16-.58,1.08c-.12.23-.18.31-.27.31a1,1,0,0,1-.25-.07c-.5-.2-1.37-.61-1-.93a3.68,3.68,0,0,1,2.09-.39Zm-59.75.72c2.72,4.75.48,9.47.29,9.24l-2.45-.91v-7.65Zm53.15.54c-.18,0-.27.13-.17.38a8.39,8.39,0,0,0,2.12,1.59c2.06,1.25,4,2.33,6.17,2.35a7.51,7.51,0,0,0,2.31-.37c.83-.31.72-1,0-.83l-1,.18c-1.89.33-4.21-.35-7-2.07-.68-.42-1.42-.82-1.6-1a1.15,1.15,0,0,0-.71-.27Zm-1.53,2.41c-.45.05.1.89,1.44,1.7,3.48,2.12,7,3.69,10.45,3.54,2.56-.12,3-.31,3-.86,0-1-.41-1.52-2.78-1.26a15.68,15.68,0,0,1-7.08-1c-2.34-1-2.89-1.25-3.73-1.68a3,3,0,0,0-1.28-.45ZM93.37,208a67.17,67.17,0,0,0,14,.43c.85,0,.9,2,.9,2,.6,6.29,5,11.49,8.1,18.34-22.54-.61-45.22.05-67.93-.13,0,0,8.25-14.45,10.75-19,.55-1,.61-1.7.31-2.12a2.1,2.1,0,0,1,.09-2.35c.56-.26.34-.71.1-1.23-.41-1.39.64-2.35,1.73-2.79,11.27-1.92,21.51,4.9,32,6.82Z"/><path id="path6353-8" class="cls-3" d="M129.16,21.21s-9,17.51-12.15,22.11c-17,1.83-13.36-6.83-48.42-6.75L61,21.43Zm15.68,17.44.24,48.44L142.79,85l-.54-48,10.22-9.84.05,2.88Zm-6.19,5.45c-2.43,4.93.29,10.94.29,10.94-1.42-.35-5.35,7.16-5.7,6.94-6-7.43-7.06-18.49.29-25.34a19.57,19.57,0,0,0,5.12,7.46Zm-4.49,33.8c-4.58,4.7-8.2,8.36-11.83,13.62-.3.43,19.3,25.46,19,25.9-3,3.36-7.08,5.83-10.23,9.88,0,0-16.07-21.15-16.44-21C113,113,111.84,119,112.15,125.87c1,17.7,8.51,28.54,8.57,28.33,6.39-25.49,33.64-41.94,32.47-39.15l0,11.37c-.3-.57-12.88,7.29-19.94,24.1-.4,1-12.35,4.89-12.27,5,.51,1.31,5.79,8.82,5.79,8.82a21.55,21.55,0,0,1-2.37,1,68.7,68.7,0,0,1-13.76-30.54c-2.13-11.56-3.5-33.28,19.54-57ZM65.09,107.79a64.28,64.28,0,0,1,1.85,31c-2.53,14.74-11.8,25.29-19.23,33.34l-3.26-.11a46.93,46.93,0,0,0,11.19-13.93L36.41,132.86l-11,2.38s.33-11.31,0-11.31c8.52-7.09,14.64-13.5,19-23.83,2.7-1,11.63-4.88,11.63-4.88,2.66,3.55-12.32,29.2-9.42,28.1,1.32,1.1,16,21,16.24,20.92,6.75-20.78.17-42.59-11.71-57.83a8.56,8.56,0,0,1,2.46-1.36c5.08,7.1,9.54,15.57,11.42,22.74Zm35.12,10.42C99.45,117,96,143.56,105,164.8c-.85.65-8.27,2.08-8.27,2.08l-2-6.36,5.06-2.15-.93-3c-3.93,1.91-12.43,4.74-17.67,13.48,0,0-25.42.22-26,.17s5.18-5.55,10.6-16.69a50.76,50.76,0,0,0,4.86-19.41c.08-1.52,5.81,7.18,5.81,7.18-1.43,7.36-5.25,14.6-9.06,21.84,0,0,5.84.34,9.93.22,6.35-7,10.33-10.66,19.91-14-2.19-11,4-12.13-20.1-15.63,2.73-14.24,1.52-31.3-4.31-47.53a30.78,30.78,0,0,0,8.73-1.52l2,5.92-5.45,2.52.89,3.34s12-3.65,17.89-14.17l26.28,0c-10.14,11.06-14.27,22-16.47,36.45-2.15-.38-6.56.68-6.56.68ZM35.59,213.67c-3.3,2.78-9.93,10-9.93,10L25.57,220l7.53-7.87L33,163.52,35.57,166Zm3.48-17.78c1.35-.65,4.06-3.85,5.34-7.43,8.72,7.83,5.13,22.23.36,25.22-1.39-3.14-5.4-7.31-5.3-7.22C40.39,203.17,41.09,199.83,39.07,195.89Zm77.19,32.62L49,228.39c3.84-7.59,7.36-13.73,11.43-21.21,2.12-2.57,48,8.31,48.26,7.23Z"/><path id="path6355-9" class="cls-4" d="M152.61,30.88l.45,63.8-7.64-7.46-.46-49ZM117.54,43.24c1.58.77,0,2.77,1,4.39-1,3.25-9.35,1.69-14.46.55-12.74-3.32-15.62-7.62-33.18-6-.15-.24-1.94-4.88-1.82-5.37C84.18,33.8,103.47,45,117.54,43.24Zm-27.24,33a9.65,9.65,0,0,0,4.56,1.63c-2.59,4.59-5.73,8.76-11,11.38l-2.44-6.07a25.54,25.54,0,0,0,8.85-6.94Zm31.84,15.77a27.93,27.93,0,0,1,4.4-5.53c6.35,8.56,20.54,26.78,20.54,26.78l6-3.07A35.86,35.86,0,0,1,153,114c-16.27,8.43-27.43,24.36-32.35,39.28,0,0-2.62-2.68-2.27-3.82a75.19,75.19,0,0,1,23-32.42Zm-20.29,17.36-20.54,0-.91-7.18c7.87-2.65,14.36-8.06,20.43-14.32l9.74.17c-3.2,7-7.63,14.17-8.72,21.36Zm-76,30.25c-.66-2,0-4.21-.25-4.12,24.6-12.23,31.63-39.09,31.63-39.09s2.34,3.72,2.23,4.3c-12.73,28.46-21.25,29.31-22.89,32.4l19.37,25.2-4.38,6L30.75,137.16C28.68,138.12,27.5,138.92,25.81,139.66Zm12.13-36.82c-4.17,7.54-8.47,11.93-12.76,15l.21-10Zm115,29.61-.1,9.66-12.67,5.49C143.68,139.92,148.44,135.8,153,132.45ZM96.5,141.14l.75,6.79a56.62,56.62,0,0,0-20,14.06c-5.9.29-9.92-.11-9.89,0a81.32,81.32,0,0,0,9-20.94ZM32.77,212.51l-7,7.11L25.54,156l7,6.86Zm61.53-51.7,2.23,6.29c-3.5,1.32-6.14,4.19-8.61,7a7.16,7.16,0,0,0-4.79-2.32C87.5,164.94,91.18,162.67,94.3,160.81Zm13.13,47.67s.88.51.78,1.22c-.29.93.93,3,.93,3-14.91,4.55-36.62-8.25-49.51-5.56a10.3,10.3,0,0,1,.33-2.83c-.41-1.82-.7-1.87,1.07-3,9-2.58,18.59,2.91,27.43,5.54,7.22,2.29,13.08,1.7,19,1.58Z"/><path id="path6357-5" class="cls-5" d="M130.21,20.78l-70.07.14,8.42,15.86s-.67,2.62.67,2.93a1.1,1.1,0,0,1,.77.89,2.64,2.64,0,0,0,.81,2.14A47.62,47.62,0,0,1,88,43.35c10.74,3.22,19.31,8,28.91,6.13a2.22,2.22,0,0,0,1.68-3c-.23-.57-.59-.57-.17-.92.47-.54.71-1.79.2-2.25s-.76.26-.12-.92Zm-1.42.76-5.73,10.65a2.73,2.73,0,0,0-3.13,3.19c-2.25-1.62-4.68,2.4-1.38,3.56-2.69,2.83-6.69.21-6.45,0,3.85.73,4.05-3.59,1.55-4.3,3.45-4.76-5.58-6.61-3.93-.73-4.57-.83-3.75,4.41-.34,4.36-.8,1.95-7.08.47-6.81-1,4.25-.45,2.55-4.34.71-4.35,4.44-4.22-4.44-8.12-4.21-1.75-3.56-.75-4,4-.56,4.32-1.25,1.78-5.73.66-7-1.37,3.54-.48,3.32-3.6.55-4.11,3.51-4.49-5.13-6.15-4.23-.93-3.09-1.07-4.79,3.08-.78,4.27C83,35.84,78.5,32.18,79,32.1c4.69.28,3.76-4.44.37-4.19,2.15-4.9-6.4-5.18-4.23-.09-3.84-.07-3.51,4.41.18,4.71-2.32,1.7-4.94,1.85-6.62.26,3.51-.93,2-5-1.48-3.89-.33-3.43-3.1-2.7-3.16-2.6l-2.48-4.66Zm24.83,3.83L142.14,36.88l.15,47.74c-2.43-2.3-4.52-4.76-7.31-7l-4.77,0c-12.46,12.74-19.28,23.65-20.78,43.18-1,13.06,3.32,29.49,14.77,45.41l2.79-1.71-5.52-8.37,11.7-5.21c4.66-9.88,10.18-19,20.29-24.22l0-12.79.18-.26-.13-4-5,2.69c-1.5-2.2-6.3-8.58-11-14.76-5-6.54-9.66-12.66-9.66-12.66l-.33.25.65-.79L149,111.75s3.28-1.62,4.25-2.16l-.13-13.89.56,0Zm-1.31,1.95.07,2.56L144.63,38q0,24.12.09,48.25l-1.9-1.9-.26-47.55ZM77.57,28a1,1,0,0,1,.7,1.62c-1,1.73-.26,3.18,2.29,4.52,3.59,1.89,9.45-.23,8.25-3-.78-.89-.06-1.51,1-1.48s1.54.81.8,1.64c-.92,1.06-.68,2.13.4,3.36,3.22,4.61,9.74,2.78,8.88-1.26-.38-1,.7-1.41,1.82-1,.71.28.6,1.39-.18,1.78-.89.09-1,1.39-.91,2.23.15,1.22,1.94,2.42,3.71,3.06a8,8,0,0,0,3.41.47,2.84,2.84,0,0,0,2.76-3.56c-.19-1.2.14-2.44,1.54-1.78.76.36.57,1.23-.21,2-2.74,2.7,2.78,6,6.12,3.72a2.43,2.43,0,0,1,1-.55c-2.09,5.24-8.64.33-8.58.12-6.9,3.87-9.81-1.48-10.81-2.34-6,1.34-7.22.68-10.59-3-6,3-9,.44-11.49-1.16-3,2.78-6.71,2.86-8.67,1.46a12.29,12.29,0,0,1-.92-1.62c0-.19.25,0,.93.51,3.55,2.56,9.44-.62,7.86-4-.42-.91-.35-1.3.28-1.66a1,1,0,0,1,.68-.18ZM66.28,29.8c1,0,1.3,1.67.75,2a18.48,18.48,0,0,1-1-2l.22,0Zm86,1.74.43,62.67-7-7-.39-48.67ZM77.51,34.21a12.55,12.55,0,0,0,2.19,1.53l-3.8-.24A9.31,9.31,0,0,0,77.51,34.21Zm11.28,1.16a19.26,19.26,0,0,0,1.84,1.79l-3.5-.85Zm31.94.54c.16,0,.11.23-.22.94-.16.34-.31.62-.43.61-.29-.24-.09-.91.15-1.14A1.49,1.49,0,0,1,120.73,35.91Zm12.9.48c-9.5,9.68-5,21-.15,26.51,1.06-3.84,6.1-7.85,6-7.94-2.17-3.41-2-8.35-.2-10.93,0,.06-3.9-3.19-4.44-4.87A7.6,7.6,0,0,0,133.63,36.39Zm-.22.55.62,1c-6.85,8-3.95,17.83,0,22.49l-.73,1.44c-9.22-11.49-3.14-22,.07-25Zm-60.78.2c7.42-.09,15.72.47,22,3,7,2.09,13.46,6.13,23.1,3.42.28,0,.42.42.41.8a1.16,1.16,0,0,1-.47.91c-12.59,3.19-19.33-3.65-29.39-5.55a71.89,71.89,0,0,0-15.77-1.05c-2.45.25-3,.17-3-.86C69.54,37.12,69.47,37.13,72.63,37.14Zm26.73,1.2,1.85,2.31L97,39.07A12.26,12.26,0,0,0,99.36,38.34Zm34.8.76c.05,0,.12,0,.23.13.59.68-1,.73-.4,0,.07-.08.11-.13.17-.15ZM74.63,40a57.65,57.65,0,0,1,24.46,4.76c6.18,2.33,11.86,3.11,16.34,2.42,2.47-.38,2.83-.44,2.82.23-.48,2.07-3.14,1.88-5.08,1.89a40.69,40.69,0,0,1-15.76-3.49A46,46,0,0,0,72.08,42,1.24,1.24,0,0,1,71,41.67c-.77-.86-.25-1.4,1.68-1.58l2-.06Zm60,.41a1.51,1.51,0,0,1,1,.45c.48.63-.13,2.39-.77,2.38S133.67,41,134,40.6A.69.69,0,0,1,134.58,40.44Zm-24.3.37a19.25,19.25,0,0,0,2.56,1.86,33.74,33.74,0,0,1-5.69-.5A19.93,19.93,0,0,0,110.28,40.81Zm22.71.3c.17,0,.31.29.47.87.36,1.23.32,1.37-.38,1.55a11.09,11.09,0,0,1-1.16.37c-.42,0-.29-.63.4-1.95C132.61,41.38,132.81,41.1,133,41.11Zm3.54,1.32,1.91,1.65a11.31,11.31,0,0,0,.24,10.5l-2,1.87C133.91,50.84,134.08,46.46,136.53,42.43ZM134,44.08c.36,0,.62.12.68.46-.15.9-.6,2.46-1.1,2.35-.76-.17-2.06-2.22-.93-2.55A5.56,5.56,0,0,1,134,44.08Zm6.46.58-1.3,4.63,1.43,4.77.72-.21-1.36-4.57,1.24-4.42Zm-9.32.8c.48,0,1.77,1.42,1.75,1.86a9.81,9.81,0,0,1-1.94,1.49c-.26.2-.25.1-.25-.14a13.1,13.1,0,0,1,.28-3.11A.18.18,0,0,1,131.12,45.46Zm2.6,2.62c.27,0,.24.4.22,1.54,0,.86,0,1.42-.18,1.44a3.14,3.14,0,0,1-1.19-.7c-1.27-1-1-1.64.45-2.11.25-.08.43-.14.57-.17ZM131,50.13a2.09,2.09,0,0,1,.74.51c1,.86,1.14,1.07.25,1.77-.26.21-.6.49-.76.49-.36,0-.53-.68-.57-1.85C130.63,50.35,130.72,50.06,131,50.13Zm2.83,1.8c.4,0,.61.42.93,1.83.21.92.35,1.3.09,1.28a4.33,4.33,0,0,1-1.35-.23c-1.86-.57-1.92-1.82-.14-2.71A1.29,1.29,0,0,1,133.83,51.93ZM132,55.07a4,4,0,0,1,1.94.76,4.14,4.14,0,0,1-.81,1.83c-.47,0-1.13-1.51-1.19-2.57,0,0,0,0,.06,0Zm3.11.67a.27.27,0,0,1,.24.09c.18.35.38.65.55,1s.06.64-.38,1.07c-.6.56-1.08.6-1.53.26C133.78,57.9,134.49,55.84,135.06,55.74ZM134.18,59l.46.09-.31.61C134.27,59.47,133.91,58.93,134.18,59ZM90.37,75.86a28,28,0,0,1-8.93,7l-.18.52a16.09,16.09,0,0,1-1.9.52,8.66,8.66,0,0,0-1.26.3,3.36,3.36,0,0,1-1.83.36,10.73,10.73,0,0,0-3.82.38c5.74,15.94,7.1,30.32,4.86,47-2.12,0-6.76-.09-6.76-.09a65.88,65.88,0,0,1-2.5,13.82,53.71,53.71,0,0,1-7.63,15.82c-2,3-3.78,5.2-5.87,8L81,169.54c3.51-5.93,10.27-10.88,15.7-12.94,1.84-.7,2.1-.6,2.41.28.55,1.56.52,1.49-.92,1.91-7.1,2.51-11.48,7-15.14,12.71-.39.6-.47.85-.3.95,2.37-.37,3.84,1.17,5.28,2.3,1.51-2.19,4.05-5.07,6-5.92a2.94,2.94,0,0,0,1.75-1,1.28,1.28,0,0,1,1.39-.48,6.6,6.6,0,0,0,2.82-.71,4.51,4.51,0,0,1,2.1-.45,7.73,7.73,0,0,0,2.63-.6c.92-.27.59-.53.06-1.73a90.12,90.12,0,0,1-5.31-21.56,102.17,102.17,0,0,1,.5-23.65c2.57,0,4.19.11,6.9.07,1.84-15.1,6.85-27.08,16.86-37.86l-27.06-.07C93.64,89.1,79.48,95.45,79,95l-.75-3s10.18-1.46,17-14.45c-.7.43-3.25.13-4.94-1.63Zm.07.61a9.09,9.09,0,0,0,3.94,1.75A24.8,24.8,0,0,1,84,89l-2.24-5.87a26,26,0,0,0,8.7-6.64Zm43.34,1.44c-14.72,14.2-21.23,26.35-21.75,42.38-.59,18.44,5,30.7,14.44,43.77l-2,1.15c-9-12.07-15.51-28.45-14.43-44.6,1-18.79,8.12-29.61,20.56-42.62ZM115.91,81.2h6.64l-4.85,6.3-5.87-.18ZM97,81.25l17.86,0-4,6.22-10.57.05a43.31,43.31,0,0,1-19.73,14.07s-1-5.83-1.25-6.26C88.8,91.75,94.36,86.43,97,81.25Zm12.56.19-2.43,2.78L109,86.65l2.66-2.44Zm-5.68.24-2.18,2.84L104,86.78l2.23-2.38Zm-6.41.15L97,85.51l3.24,1.77.38-3.59Zm18.91.38-2.31,3.57,2.81.13,2.7-3.7ZM81,83.81l2.08,5.69a5.85,5.85,0,0,1-1.79.72l-1.74-6Zm-2.12.7,1.72,5.94a13.68,13.68,0,0,1-2.1.77l-1.9-6.31Zm-25.37.21L51.06,86.2l-.38-.26-25.87,15,0,4.54,30-12.67a13.37,13.37,0,0,1,1.45,2.14l-12,5.14c-3.62,10-11.77,18.26-19.38,24.06,0,9.91.09,30.66.09,30.66L43,172.9a80,80,0,0,0,6.44-6.71L28.7,138.69l1.84-1.2L51.1,164.84c-.17.21-.35.41-.53.61-.36-.46-4.53-5.83-9.34-12.08-5-6.52-10.31-13.49-11.4-15.16l-.44.29c1.15,1.76,6.41,8.67,11.42,15.19,4.84,6.29,9.1,11.78,9.41,12.17-2.19,2.52-4.51,4.8-6.83,7.08l4.13-.06c2.9-3,23.91-22.45,20.38-51.85-1.52-12.57-5-23.45-14.35-36.31Zm22.14.1C79.56,95.9,82.63,111.67,79.5,132c0,0-1.12,0-1.62,0,3.22-16,.27-33-4.69-46.87Zm-22.19.33c18.43,24.83,21.76,61.57-6.4,86.92L44.69,172a78.19,78.19,0,0,0,5.7-5.87l.16.2L51,166l-.22-.28c21.57-24.91,18.77-54.71.69-79.29Zm74,.12s4.69,6.1,9.65,12.63c4.66,6.14,9.46,12.53,10.94,14.69l-.71.38L126.8,86.12Zm-1,1.5,20.21,26.29-5.1,3.7-19-25.07Zm-33.06,0-.12,3.55,3.21.5,0-3.79Zm17.9,1.41,1.92.09L110.7,90l1.61,2.08,2.6-1.7-1.45-2.1,3.79.08-2.61,4.06s-5.58-.17-5.58-.17Zm-1.08.12c-.21,0-7.85,14.46-8.73,20.75l-19.93.1-.78-6.77a45.52,45.52,0,0,0,19.9-14c1.07.07,9.54-.07,9.54-.07ZM89.71,90.47l-.63,3.31,2.86.62.57-3.3Zm32.33,2,18.73,24.9-1.94,1.36L120.62,94.54Zm-13.45.58,5.63.16L111.81,98l-5.53-.07Zm-23.46.29-.41,3.4,3,.82L88.11,94Zm25.27,0-2.63,1.78,1.69,2.38,2.73-1.78Zm-29.34,2-1,3L82.85,100l.88-2.83ZM54.74,96c.82,1-.5,5.69-2.06,2.71-.34-.61-.78-1.49-.78-1.49l.8-.29c.64,2.21,1.23,1.39,1.3-.57a6.15,6.15,0,0,0,.74-.36Zm2.71,1.35,1.67,3.13c-10.54,26.12-24.75,33.83-33.35,39.05l0-3.66C48.72,124.42,57.33,97.36,57.45,97.36ZM51,97.59a12.37,12.37,0,0,1,1.35,2.79c.07.42-.14.58-.6.84-1.27.62-2.68,1-3.69.48-.31-.51.93-3.31.93-3.31Zm68.37.6a5.38,5.38,0,0,1,2.78,1.26c1.71,1.38,2.44,3.24,2.64,6.89.13,2.35.3,2.82,1,1.86,1.22-2.16,4.14-1.11,4.51,1.17.2,1.21-.85,2.08-1.2,1-.9-2.28-3.12-1.73-2.76.53.24,1.49,1.72,2.31,4.65,3.14,3.52,1,4.57,2.21,5.26,5.11.3,1.29.25,2-.42,2.63-.34.33-.76.67-.76.67s-.47-2-.67-2.86c-.35-1.66-2.67-1.57-2.41.17.15,1,.19,1-.32,1-2.4-.11-2-3.92.79-3.63.57-.06.65-.3.16-.51a16.8,16.8,0,0,0-2.63-.68c-3,0-7.35-4.64-7.25-8.77.07-2.7-.84-4.65-1.77-4.87-.74-.17-1.81.51-1.72,1.33.13,1.14-.79.79-1.32,0-.81-1.14.23-2.77,2.16-2.64.82-.16-.6-.69-1.66-1-1-.06-.15-1.24,0-1.45a.92.92,0,0,1,.61-.28Zm-13.44.43,5.64,0-1.8,4.77-5.71-.06Zm-58,.26A57.3,57.3,0,0,1,25.7,126.59l0-2.69c1.8-1.33,13.23-9.66,19.15-23.69ZM107.8,99l-2.62,1.82,2,2,2.74-1.74Zm-53.27,1.56a.59.59,0,0,1,0,1.17.59.59,0,0,1,0-1.17Zm4.95.51c5.63,13.23,7.69,26.12,3.3,42.74L47,123.15c4.72-6,9.42-13,12.51-22.12Zm-6.9.78c.3,0,.33.38.24,1.2-.22,2-1.52,4.13-2.33,4.2-.26,0-.62-.5-.73-.95a9.38,9.38,0,0,0-1.66-2.59c-.75-.83-.71-1,.36-1A13.79,13.79,0,0,0,51.7,102,2.34,2.34,0,0,1,52.58,101.81Zm-14,.53-13.88,5.38,0,10.94a46.57,46.57,0,0,0,13.84-16.32Zm12.58.7c-.55,0-1.54.53-1.61.88,0,.2.69,1.39,1.1,1.44.69-.11,1-1.68.86-2.22C51.44,103,51.3,103,51.12,103Zm-13.68.19a49,49,0,0,1-11.73,14l-.14-9Zm78.81,0L132.67,125l-1.53,1.54-15.95-20.58Zm-69.3.65c1,0,2.62,3.71,2.12,4.38-.25.37-2.2.21-3.24.06s-1.17-.22-.82-1.07a16.63,16.63,0,0,1,1.75-3.31.33.33,0,0,1,.19-.06Zm56.76.17,5.88.11-1.42,5.13-6,0Zm2.38.24-2.87,1.95,2.26,2.29,2.77-1.92Zm8.71,2.55,15.85,20.75A68.77,68.77,0,0,0,118,149.2,61.6,61.6,0,0,1,114.8,106.84Zm-64,1.31a.58.58,0,0,1,.58.58.59.59,0,0,1-.58.59.58.58,0,0,1-.57-.59A.57.57,0,0,1,50.79,108.15Zm-6.42.75a1.48,1.48,0,0,1,.7.14c1.25.54,4.15,0,4.23.25.43.62-.22,2.31-1.44,3.48a3.13,3.13,0,0,1-1.46,1c-.32,0-.38-.43-.61-1.19a22,22,0,0,0-1.6-3.41C44.12,109,44.2,108.92,44.37,108.9Zm-.89,1.22c.49-.12,1.06.93,1.54,2.5s.22,1.82-.63,1.83a8.66,8.66,0,0,1-1.11,0c-2.18,0-2.9-.15-2.27-1.22.84-1,1.34-2,2.26-3a.48.48,0,0,1,.21-.13Zm3.84.07a1.29,1.29,0,0,0-1,.43,1.12,1.12,0,0,0,.46,1.44c.34.17,1.27-1.21,1-1.63a.55.55,0,0,0-.51-.24Zm54.8.06,5.81.13-1.05,6.09Zm50.52.53,0,3c-18.51,10.59-26.1,23.11-32.45,39l-1.76-3q9.63-24.66,29.95-36.65s0,0,0,0l.45-.29,0,0c1.23-.71,2.48-1.39,3.77-2Zm-105.88,4a.58.58,0,1,1-.58.58A.58.58,0,0,1,46.76,114.8Zm-6.43,0c.23,0,.78.21,1.59.3,1.1.12,2.83-.07,3.26.24.19.24,0,.89-.33,1.62a5.83,5.83,0,0,1-2.06,2.29c-1.69.79-1.3-.21-1.57-1.22-.16-.59-.4-1.35-.59-1.88C40.18,115.16,40.1,114.85,40.33,114.81Zm-1.11,1c.44,0,.75.57,1,1.69.57,1.86.7,2.58-.73,2.42a8.37,8.37,0,0,1-1.61-.16c-1.68-.35-1.87-.49-.87-1.67.37-.44.93-1.1,1.23-1.47S39,115.89,39.22,115.86Zm113.47.12v1.63c-1.37.48-2.24,1.62,0,2l0,1.28c-1.05-.38-2-.94-3-1.31-.7-.24-.51-.81.22-1.61a7.26,7.26,0,0,1,2.73-2Zm-109.57.23a2,2,0,0,0-.72.08c-.56.21-.18,1.58.38,1.58s1.26-1.11.94-1.49A1,1,0,0,0,43.12,116.21Zm104.41,1.93a.58.58,0,1,1,0,1.16.58.58,0,0,1,0-1.16Zm-48.8.43a7.51,7.51,0,0,1,1,.14c-.2-.06-.89,8.78-.83,14.34a87.17,87.17,0,0,0,6,31.54,9.51,9.51,0,0,1-2.73.74c-2.61-8-4.92-16.51-5.2-24.63-.26-8.84-.38-14.17,1.09-21.94,0-.1.13-.16.29-.18A1.83,1.83,0,0,1,98.73,118.57Zm-12.86.18h6.35V123h4.53l-.36,4.8H92.22V132H85.87v-4.22h-5l.39-4.8h4.58ZM35.75,120a1.27,1.27,0,0,1,.71.22,7.82,7.82,0,0,0,3.18.52c1-.08,1,.2.7,1.06-.53,1.53-2.58,3.18-3.55,3.18-.33,0-.53-.17-.53-.58A20.47,20.47,0,0,0,35.7,121c-.23-.65-.21-1,0-1Zm113.08.15a6.47,6.47,0,0,1,2.76,1.08c1.1.63,1.3,1,.75,1.39-.92.57-3.64,2.76-4.14,2.63-.67-.57-.53-4.17.2-4.94A.58.58,0,0,1,148.83,120.11Zm-106.57.15a.59.59,0,1,1-.58.59A.58.58,0,0,1,42.26,120.26Zm104.71.06c.36,0,.5.2.4.58-.4,1.58,0,4.08-.13,4.66a20.62,20.62,0,0,0-4.12-1.39c-.45-.06-.57-.15-.36-.55a6.58,6.58,0,0,1,3.33-3.13A3,3,0,0,1,147,120.32Zm-112.44.51c.5,0,.84.84,1,2.24s-.08,2.24-1.21,2.06A5.12,5.12,0,0,1,33,125c-2-.45-2.43-.91-.74-2.26a12.25,12.25,0,0,0,1.48-1.36c.29-.35.55-.51.77-.51Zm3.37.76a1.23,1.23,0,0,0-.71.12,1.68,1.68,0,0,0,.09,1.55c.57.2,1.74-1,1.39-1.46A1.33,1.33,0,0,0,37.9,121.59Zm107.93.6a1.75,1.75,0,0,0-.72.35c-.73.52-.7.84.13,1.34.41.36.89.4,1,.19a3,3,0,0,0-.1-1.61C146.1,122.27,146,122.18,145.83,122.19Zm-4.34.71a.58.58,0,1,1-.58.58A.58.58,0,0,1,141.49,122.9Zm-54.94.41v4.2h5v-4.2Zm66.12,0,.05,2.88c-13.9,8.43-19.91,24.21-19.9,24.21l-3.24,1.24c4.53-10.86,10.72-20.33,23.09-28.33ZM46.83,124l15.63,20.48-1,2.58L45.22,125.58Zm-16.08.88a1.81,1.81,0,0,1,.63.27,7,7,0,0,0,2.7.88c.93.08,1,.47.71,1.08a6.47,6.47,0,0,1-3.62,2.45c-.68.23-.32-1.84-.59-3.77C30.52,125.1,30.53,124.83,30.75,124.83Zm112.84.18c1.33.1,3.13.86,3.12,1.51a14.89,14.89,0,0,1-3.32,2.83c-.74,0-1.56-3.87-.9-4.21A2.06,2.06,0,0,1,143.59,125Zm-2.7.27c.38,0,.53.26.49.93a8.25,8.25,0,0,0,.72,2.92c.32.7.69,1.18.33,1.19s-.85-.28-1.43-.44a9,9,0,0,0-2.32-.36c-1.58,0-1.79,0-1.11-1.32a7,7,0,0,1,2.36-2.56A2.76,2.76,0,0,1,140.89,125.28Zm-111.46.06c.45-.06.6.43.64,1.67.06,1.85-.13,2.85-1.12,2.87a5.17,5.17,0,0,1-1.91-.61c-1.86-.91-1.81-1.11.71-2.91A4.79,4.79,0,0,1,29.43,125.34Zm7.11.64a.58.58,0,0,1,.57.58.58.58,0,1,1-1.15,0A.58.58,0,0,1,36.54,126Zm-4.62.51c-.19,0-.28.16-.25.5.13,1.21.08,1.34,1.16.67.6-.38.85-.66,0-1a2.66,2.66,0,0,0-.88-.21Zm108.26.57a.86.86,0,0,0-.72.4c-.7.81-.56,1.19.46,1.4a2.41,2.41,0,0,0,1,0c.47-.1,0-.71-.22-1.24-.15-.34-.34-.53-.56-.56Zm-98,1.55c.28,0,.36.55.4,1.14.17,3.2,4.64,3.69,3.07.86-.51-.91-.19-1.26.73-.8,1.45.73,1.93,2.47.52,3.28-1.67.67-1.1.82,1,1.54,4.55,1.57,6.51,4.44,6.74,9.91-.08,2.49.26,3.38,1.42,3.72s2.28-1,1.51-1.77c-.41-.39-.75-.75-.53-1,.7-.69,2.48.43,2.46,1.63,0,.79-.31,1-1.48,1.88-.33.26-.05.74.43.74,1.79-.58,1.66,1.81.7,1.88-3.3-.09-6.76-3.7-6.41-6.68.25-2.1-.16-3.65-.72-2.79-1.26,1.89-5,.63-4.92-1.65,0-1.21.82-1.41,1.28-.32.69,1.62,2.61,1.66,2.89,0s-1.07-2.76-4.66-4.06c-4.19-1-6.88-4.9-5.23-6.95.34-.43.59-.59.76-.57Zm93.54,0a.58.58,0,1,1-.58.58A.58.58,0,0,1,135.76,128.64Zm-110,1c.9.27,1.45.65,2.47,1,.63.21,1,.36.44,1A10.54,10.54,0,0,1,25.85,134v-1.33c1.68-.75,1.52-1.45,0-1.83Zm113.46.56a3.91,3.91,0,0,1,2.55.87,39.58,39.58,0,0,1-3.31,3.72c-1.2-1-1.36-2.92-1.32-4.34a6.84,6.84,0,0,1,1.55-.25Zm-3.15.32c.27,0,.31.27.39,1a20.59,20.59,0,0,0,1.21,4.13c-1.08-.08-2.31-.44-3.46-.43h0c-1.37,0-1.77.12-1.76-.39a5.22,5.22,0,0,1,2.82-4,3.08,3.08,0,0,1,.8-.31Zm-105.32,0a.58.58,0,0,1,0,1.16.58.58,0,1,1,0-1.16Zm122.89,1.11a40.73,40.73,0,0,0-14.23,16.64l14.15-6Zm-115,.08,18.46,24.08-1.34,2L36.88,133.1Zm96.34.76a.8.8,0,0,0-.46.28c-.58.62-.65,1.11-.29,1.37a3.5,3.5,0,0,0,1.52.25c.54,0,.25-.36-.15-1.31C135.45,132.63,135.23,132.43,135,132.45Zm17.73.44,0,9.06-12.1,5.12A37,37,0,0,1,152.73,132.89Zm-81.82.39L76,140.46l-6,0Zm-34.69.36,19,24.74-4,5.28-20-26.33Zm94.94.76a.58.58,0,1,1-.58.58A.58.58,0,0,1,131.16,134.4Zm2.44,1.44a8.9,8.9,0,0,1,3.37.57c.37.33-.83,1.72-1.51,2.69-.34.41-.73,1.52-1.26,1-.94-.88-2.13-4-1.52-4.2a3,3,0,0,1,.92-.09Zm-2.33.54c.46.05.72.61.89,1.65a8,8,0,0,0,1.28,2.42c.61.9.36,1.05-1.21.69a14.64,14.64,0,0,0-3.45.09c-1-.07-.05-3.23,1.43-4.38A1.71,1.71,0,0,1,131.27,136.38Zm-.5,1.82a1.21,1.21,0,0,0-.56.33c-.84.74-.48,1.53.67,1.49.91,0,1-.15.54-1.14C131.2,138.38,131,138.16,130.77,138.2Zm-3.8,2.65a.58.58,0,0,1,.57.59.57.57,0,0,1-.57.58.59.59,0,0,1-.59-.58A.6.6,0,0,1,127,140.85Zm-30.62.43a51.11,51.11,0,0,0,.64,6.49c-8.48,3.12-15,7.78-19.88,13.95l-9.11.05c2.75-5.14,6.54-11,8.67-20.47Zm-26.5,0,6,.09-1.58,4.67-5.7-.06Zm61.55.29c.89,0,2,.22,1.89.63a23.71,23.71,0,0,1-2.45,4c-.53,0-1.71-1.83-2.05-3.14-.24-1,0-1.18,1.85-1.45A3.1,3.1,0,0,1,131.4,141.61Zm-59.12.26-2.81,1.75,2.25,2.18L74.38,144Zm55.3,1.13c.32,0,.54.25.68.89a8.1,8.1,0,0,0,1.37,2.56c.82,1.05.81,1.08-.38,1.15s-2.4.62-3.43.74c-1.39,0-.7-3.74,1.11-5a1.3,1.3,0,0,1,.65-.31Zm25.77,1.22-30.82,13.29L127,164.1l26.4-15.48Zm-26,1c-.28,0-.52.21-.73.71s0,.76.54.76c1,0,1.34-.46.73-1.13A1,1,0,0,0,127.39,145.26Zm-59.31,1.82,5.91,0-1.84,4.34-5.56-.1Zm2.8.31-3.08,1.45L69.54,151l2.79-1.6Zm58.53.89c.59,0,.68.41.25,1.35-.85,1.84-1.19,2.83-1.76,2.83s-1-.54-1.57-1.61c-.87-1.54-.84-1.64.59-2.08a13.92,13.92,0,0,1,2.21-.48Zm-5.73,0a.59.59,0,0,1,.58.59.58.58,0,0,1-1.16,0A.59.59,0,0,1,123.68,148.28Zm-26.59.34.51,2.52-3.12-.84-.66,3.09,3.11,1,.67-3.2.81,4a31.63,31.63,0,0,0-17.59,13.67l-17.39-.09,3.83-6,10.3-.14A43.43,43.43,0,0,1,97.09,148.62ZM124.85,150a1.08,1.08,0,0,1,.55.39c.28.31,1.58,2.44,1.58,2.44l-1.11.56c-1.34-2.17-1.34-1.12-1.85.73l-1.3.59c-.16,0,.53-3.82,1.53-4.52a.78.78,0,0,1,.6-.19Zm-58.73,2.24,5.68.09-2.36,4.8-5.74,0Zm1.78.07-2.38,1.92s1.74,2.51,1.74,2.51l2.59-2.17Zm21.92.1-.59,3.5,3.11.65.8-3.26ZM85.45,155l-.59,4,2.93.6.85-3.35Zm-60.52.05s.1,47.21.24,70L36,213.94l0-47.85Zm.92,1.3,6.43,6.47v49.82l-6.43,6.48Zm37.38,1.55L69,158l-2.11,3.9-6-.09Zm2.13.29-2.82,1.08,1.82,2.22L66.93,160Zm33.93.6,2.09,6.62-1.72.37-2.27-6.35Zm-14.9.64-3.49.09.25,3.49,3.36-.17Zm12.39.25,2,6.42-1.7.67-2.2-6.15ZM94.19,161l2.12,6c-5.2,2.43-6.59,4.87-8.43,6.86a7,7,0,0,0-4.46-2.27A29.65,29.65,0,0,1,94.19,161Zm-34,1.69,6.27,0-4.08,6.05-6.87,0Zm17.56.13-.46,3.4,3.16,1.6.41-4Zm-3.92.21-2.26,2.57,2.36,2.62,2.38-2.65Zm-4.78.18-2.51,2.47,2,2.6,2.42-2.52ZM33.47,164,35.34,166V213.3l-9.49,10v-2.76l7.62-7.9Zm26.88.05L58,167.62l3.52.07,2.26-3.56Zm-16,24c-1.3,2.94-3,6.69-5.86,7.88,2.1,4.19,1.82,8.39.34,10.68a21.39,21.39,0,0,1,5.67,7.82c6.73-6,7.81-18.25-.15-26.38Zm.17.56c5.3,5.63,7.62,17.52,0,24.67l-.46-1.15c6-7.37,4.14-17.05-.2-22.22ZM43.19,192a.59.59,0,0,1,.19,0c.39.08.56.64.18,1.37s-.8,1.27-1.27,1.22-.47-1.39.22-2.16a1.2,1.2,0,0,1,.68-.43Zm1.58.78c.25,0,.54.38,1,1.35s.7,1.7.35,1.73a3.81,3.81,0,0,1-2.18-1.17c-.34-.4.11-1.17.59-1.75a.38.38,0,0,1,.24-.16Zm-3.65,1.77c1.12.47,3.6,9.73.23,13.48l-1.78-1.49A13,13,0,0,0,39.22,196C39.44,196,40.72,194.73,41.12,194.51Zm2.34,1a3.07,3.07,0,0,1,2.1.93c.34.54-.64,2.13-1.34,2.56a.42.42,0,0,1-.54,0,6.49,6.49,0,0,1-.72-3.38.64.64,0,0,1,.5-.15Zm-6.1.84-.72.22L38,201.1l-1.25,4.43.73.2,1.3-4.63Zm9.19,1c.32-.05.51.44.59,1.57,0,.66.09,1.18-.11,1.2a3.89,3.89,0,0,1-1.09-.57c-.79-.47-.81-.68-.13-1.56.3-.39.55-.61.74-.64ZM44,199.51c.62,0,1.88.44,2.09,1.23s-1.07,1.74-1.9,1.73a.61.61,0,0,1-.39-.12l-.13-2.76c0-.07.13-.09.33-.08Zm21.86,1.1c-4.73,0-7.24,1.21-6.34,3.44.57.58.18.8-.07,1.15-1,1-.44,1.78.17,2.92,0,0-7.84,14.09-11.76,21.11l69.17.17-2.72-5.15.47-.33c-.74-1.24-1.37-2.64-2.13-3.87l-.54.07c-.9-1.73-1.26-2.37-2.43-4.41h.53c-.28-.91-1-1.51-1-2.16,0-.81.2-1.64-.29-2.18s-.66-.83-.54-1.22a1.6,1.6,0,0,0-1.52-2,47.39,47.39,0,0,1-19.8-1.88c-6.69-2-12.53-5-19-5.55q-1.14-.08-2.16-.09Zm-.87.33c8.7-.2,14.67,3.54,22,5.72a45.93,45.93,0,0,0,20,1.92c1,.08,1,.65,1,1.22a48.57,48.57,0,0,1-24.74-3c-8.29-3.13-17.41-6.26-23.4-3.45,0,0,0-1.2.65-1.53a6,6,0,0,1,2.74-.81c.61,0,1.2-.08,1.78-.1Zm-18.07.64c.32,0,.35.61.19,1.84-.12,1-.3,1.62-.56,1.62s-.6-.57-1-1.31c-.35-.58-.28-.8.5-1.5C46.43,201.79,46.72,201.57,46.92,201.58Zm-3.08,1.59c.24,0,1.93,1.42,1.76,2.16-.35.93-1.52.73-2.24.7l.45-2.83a0,0,0,0,1,0,0Zm21.16.62h.87c5.13.13,11.41,2.32,16.14,4.08a57.34,57.34,0,0,0,25.8,3.39c.54.11,1,1.53.11,1.54-11.49.13-9.64,1.57-27.5-3.7-7-2-12.51-5.24-20.54-2.4l0-1.57A9.78,9.78,0,0,1,65,203.79Zm-18.87,2.54c.3,0,.24.33,0,1s-.52,1.14-.79,1.15-.42-.22-.68-.65c-.48-.84-.42-1,.53-1.31a3.25,3.25,0,0,1,1-.22Zm-3.15.78a8.11,8.11,0,0,1,1.33,1.63c.31.78-.6,1-1.49,1.07L42,208.72Zm23.48.37a12.42,12.42,0,0,1,4.87.76l-3.77,1.28-2.62-2c.49,0,1-.05,1.52-.05Zm-3.94.79a6.11,6.11,0,0,1,4.93,2.24c4.17-2.42,7.87-1.91,11,2.15a10.59,10.59,0,0,1,10.83,3.12c4.24-2.14,8.18-1.24,11.68,1.15a7,7,0,0,1,8.14-1.66l.84,1.69c-.21.08-1.12-1.7-5.56-.87-1.49.28-4.05,2.79-2.61,4,.66.93.67,1.36.09,1.92a1.26,1.26,0,0,1-1.87-.29,1.29,1.29,0,0,1,.24-1.42c1.56-1.94-3.34-5.32-6.86-4.73-2.68.45-5,2.07-4,3.3.81,1,.28,2-.68,2s-1.79-.8-.93-1.89c1.91-2.42-1-5.25-5.46-5.31-3.16,0-4.21.74-4,3,.08,1.06-.12,1.35-.85,1.51-1.17.26-1.76-1.09-.79-2.12,2.09-2.22-.29-5.48-4.25-5.69-1.45-.08-1.73,0-3.35.91-1.26.72-1.71,1.8-1.09,2.65a1.22,1.22,0,0,1-1.52,1.84c-.88-.38-1.32-1.06-.34-2.22,1.29-1.53.65-2.69-1.8-3.63a4.52,4.52,0,0,0-3.53-.16,5.82,5.82,0,0,0-1.55,1.05c.61-1.06,1.15-2,1.15-2a5.93,5.93,0,0,1,2.17-.53Zm14,1.18a37.4,37.4,0,0,1,4.92,1.88l-2.64.55Zm-14.4.92h.52a3.78,3.78,0,0,1,2.42,1c-2.75-.37-3.72,3.29-.36,4.1-4.43,3.31,3.88,8.26,4,1.42,3.9.69,3.39-4.5.92-4.91,1.26-1.4,5-1.44,6.94,1.52-3.32-1.73-5.11,2.74-1.67,4-4.24,3.74,4.07,7.2,3.88,1.14,3.13,1.87,5.29-2.89,1.1-3.62.24-.86,5.72-.87,7.11,1.35-3.88-.89-4.06,3.87-.63,4.25-3.44,4.4,5.29,6.62,3.83.62,3.37,1.35,4.65-2.89,1.36-4.24-.18-.68,5.32-1.25,7.25,1.18-4.23.64-2.75,4.76,0,4.43,0,0,0,.12-.19.52-1.3,4.14,5.66,4.49,4.7.1-.16-.41-.33-.95-.33-.95,1.92.4,3.1-.39,3-2.2-.48-2.4-1.74-2.22-3.36-1.74-.68-.72,3.9-3.1,6.77-1-3.52,1-1.74,5.16,1.21,4.6.12,1.32,1.55,3.18,3.41,2.27l2,3.9H49.14l5.72-9.94a3.07,3.07,0,0,0,3.83-2.39c4,1,3.36-4.16,1.37-4.51-.07-.41.91-.88,2.11-.93Zm-18.05,0c.31,0,.62,0,.49.17l-.57.71-.44-.62C43.5,210.53,43.82,210.42,44.12,210.4Zm14,2.16c.44.5.57,1.55-.77,1.58Zm29.65.78,3.61.76-1.89.91Zm11.16,1.46,3.65,0L101,216.09Zm11.75,3.77s.08,0,.15.15.9,1.38.86,1.42c-.35,0-.69-.34-.85-.62h0c-.19-.36-.25-.9-.16-1Z"/><path id="path12536" class="cls-4" d="M130.52,184.89c4.15,6.86,8.51,13.51,14,19.2-5.46,5.69-9.82,12.35-14,19.2-4.15-6.85-8.51-13.51-14-19.2C122,198.4,126.37,191.75,130.52,184.89Z"/><path id="path12538" class="cls-4" d="M164.47,193.47a45.14,45.14,0,0,0,5.82,8,45.5,45.5,0,0,0-5.82,8,45.5,45.5,0,0,0-5.82-8A45.14,45.14,0,0,0,164.47,193.47Z"/><path id="path12540" class="cls-4" d="M48.06,64.55c4.15-6.86,8.52-13.51,14-19.2-5.45-5.69-9.82-12.35-14-19.2-4.15,6.85-8.51,13.51-14,19.2C39.55,51,43.91,57.69,48.06,64.55Z"/><path id="path12542" class="cls-4" d="M14.11,56a45.14,45.14,0,0,1,5.82-8,45.5,45.5,0,0,1-5.82-8,45.5,45.5,0,0,1-5.82,8A45.14,45.14,0,0,1,14.11,56Z"/><path id="path12544" class="cls-4" d="M163.83,214.89h-2.65l3.9,9.75,3-4.12,0-5.63H166V212h7.37v2.91h-2.43v21h2.43v2.54h-7.48v-2.62h2.06l0-10.22-6.54,10.3h2.31v2.54h-8v-2.54h2.1l5.38-8.42L158,214.88h-2.34V212h8.19l0,2.91Z"/><path id="path12546" class="cls-4" d="M14.75,34.56H17.4l-3.9-9.75-3,4.12,0,5.63h2.1v2.91H5.26V34.56H7.69v-21H5.26V11.07h7.48v2.62H10.68l0,10.22,6.54-10.3H14.86V11.07h8v2.54H20.72L15.34,22l5.27,12.54H23v2.9H14.77l0-2.91Z"/></g></g></g></g></svg>